<?xml version="1.0" standalone="no"?>
<!DOCTYPE svg PUBLIC "-//W3C//DTD SVG 20010904//EN"
 "http://www.w3.org/TR/2001/REC-SVG-20010904/DTD/svg10.dtd">
<svg version="1.0" xmlns="http://www.w3.org/2000/svg"
 width="198.000000pt" height="198.000000pt" viewBox="0 0 198.000000 198.000000"
 preserveAspectRatio="xMidYMid meet">
<metadata>
Created by potrace 1.11, written by Peter Selinger 2001-2013
</metadata>
<g transform="translate(0.000000,198.000000) scale(0.100000,-0.100000)"
fill="#000000" stroke="none">
<path d="M809 1532 c-20 -15 -63 -47 -95 -73 -74 -57 -123 -85 -163 -94 -17
-4 -31 -9 -31 -12 0 -3 32 -59 71 -124 60 -99 75 -119 96 -119 30 0 86 23 121
50 41 31 91 72 126 102 17 15 36 28 43 28 20 0 25 -38 9 -62 -20 -28 -20 -38
-2 -38 7 0 17 10 20 23 l6 22 19 -22 c30 -36 46 -28 23 10 -19 33 -15 67 8 67
5 0 44 -30 87 -66 82 -70 161 -114 203 -114 21 1 36 19 97 122 l72 122 -50 17
c-53 19 -70 30 -198 127 l-83 63 -82 -135 c-44 -75 -84 -136 -88 -136 -3 0
-43 61 -88 135 -45 74 -83 135 -84 134 0 0 -17 -13 -37 -27z m42 -24 c10 -18
8 -24 -11 -40 -22 -17 -23 -17 -36 -1 -18 24 -17 40 4 52 25 15 30 14 43 -11z
m380 6 c16 -15 17 -18 3 -40 -15 -23 -17 -23 -39 -6 -19 14 -21 21 -12 39 12
27 24 29 48 7z m-493 -98 c9 -20 7 -27 -10 -42 -19 -18 -20 -18 -39 5 -18 22
-18 25 -3 42 23 25 39 24 52 -5z m606 9 c16 -12 18 -19 8 -40 -13 -29 -20 -30
-46 -10 -16 12 -18 19 -8 40 13 29 20 30 46 10z m-526 -61 l-24 -25 -14 27
c-13 24 -13 28 9 45 24 19 24 19 39 -2 13 -19 12 -23 -10 -45z m452 27 c-1
-10 -27 -41 -35 -41 -5 0 -16 7 -26 16 -16 15 -17 18 -3 40 15 22 17 22 40 7
13 -8 24 -18 24 -22z m-340 -17 c0 -6 -9 -19 -19 -28 -19 -17 -20 -17 -36 8
-17 25 -16 27 6 45 22 17 24 17 36 2 7 -9 13 -21 13 -27z m230 21 c10 -12 10
-21 1 -42 -12 -25 -12 -25 -34 -7 -12 10 -23 20 -25 21 -2 0 1 11 8 22 13 25
33 27 50 6z m328 -71 c-12 -25 -19 -28 -55 -18 -21 6 -22 8 -8 35 14 25 18 27
44 18 27 -10 29 -13 19 -35z m-877 15 c12 -24 0 -39 -33 -39 -19 0 -42 35 -33
50 11 18 54 11 66 -11z m109 -45 c0 -6 -11 -16 -24 -22 -21 -9 -27 -8 -39 12
-14 21 -13 24 11 38 24 15 27 15 39 0 7 -10 13 -22 13 -28z m651 26 c23 -13
23 -19 4 -44 -13 -18 -16 -18 -40 -2 -21 14 -24 20 -15 36 12 23 23 25 51 10z
m-563 -24 c9 -21 8 -27 -14 -41 -14 -9 -27 -15 -29 -13 -1 2 -7 13 -14 25 -9
18 -8 24 11 37 29 21 33 20 46 -8z m466 9 c17 -13 18 -18 8 -40 -10 -22 -15
-24 -31 -15 -28 15 -33 27 -21 50 13 24 19 24 44 5z m-372 -20 c9 -21 8 -27
-13 -44 l-24 -19 -13 25 c-12 21 -11 27 4 44 23 25 32 24 46 -6z m285 2 c10
-7 9 -16 -3 -39 l-16 -30 -21 23 c-22 24 -23 34 -5 56 10 12 20 10 45 -10z
m-507 -68 c13 -24 11 -28 -22 -34 -29 -6 -59 32 -36 46 23 15 47 10 58 -12z
m733 12 c18 -7 18 -7 0 -28 -13 -16 -25 -21 -45 -16 -24 5 -26 7 -16 29 11 24
28 28 61 15z m-623 -58 c0 -10 -29 -33 -43 -33 -3 0 -12 11 -21 25 -15 23 -15
25 11 39 25 13 29 13 41 -1 6 -9 12 -23 12 -30z m528 22 c3 -3 -15 -43 -23
-53 -4 -5 -55 21 -55 27 0 4 7 17 16 29 13 19 19 20 37 11 12 -7 23 -13 25
-14z"/>
<path d="M1193 1055 c-17 -13 -17 -15 -1 -31 14 -14 20 -15 32 -4 34 27 5 61
-31 35z"/>
<path d="M369 983 c0 -5 -2 -15 -4 -23 -1 -8 -10 -51 -19 -95 -9 -44 -18 -89
-21 -100 -3 -16 1 -21 20 -23 22 -1 26 3 31 38 6 35 9 38 25 29 44 -23 111 42
112 109 1 63 -33 89 -84 62 -13 -7 -19 -7 -19 0 0 11 -40 14 -41 3z m95 -49
c10 -26 -20 -84 -45 -84 -20 0 -21 4 -16 41 5 40 19 59 43 59 7 0 15 -7 18
-16z"/>
<path d="M564 963 c-3 -16 -10 -44 -14 -63 -22 -97 -22 -90 4 -90 25 0 35 20
48 95 2 10 17 26 33 35 30 15 45 29 45 43 0 13 -33 7 -52 -10 -17 -15 -18 -15
-18 0 0 30 -39 20 -46 -10z"/>
<path d="M708 961 c-28 -25 -33 -36 -33 -75 0 -58 20 -79 74 -78 49 1 62 8 54
28 -4 10 -13 14 -26 10 -24 -6 -57 10 -57 28 0 8 14 12 47 10 52 -3 63 5 63
47 0 60 -69 77 -122 30z m77 -30 c0 -8 -12 -15 -27 -17 -27 -3 -38 13 -21 30
12 12 48 2 48 -13z"/>
<path d="M875 968 c-3 -13 -11 -54 -19 -91 l-14 -68 26 3 c23 3 28 9 37 55 10
55 35 90 54 79 11 -7 8 -41 -9 -103 -8 -32 -7 -33 20 -33 25 0 28 4 34 49 7
56 38 103 55 85 8 -7 8 -26 1 -63 -13 -71 -13 -71 14 -71 24 0 26 5 43 118 8
54 -30 79 -77 50 -15 -10 -22 -10 -32 0 -16 16 -50 15 -67 0 -11 -10 -14 -10
-18 0 -8 21 -42 14 -48 -10z"/>
<path d="M1175 978 c-5 -13 -35 -155 -35 -164 0 -2 11 -4 25 -4 17 0 26 6 29
23 16 73 26 130 26 142 0 18 -39 20 -45 3z"/>
<path d="M1267 973 c-25 -87 -27 -140 -7 -158 17 -16 22 -16 49 -2 17 9 31 11
31 6 0 -5 10 -9 23 -9 20 0 24 7 36 73 7 39 15 80 17 90 4 12 0 17 -14 17 -27
0 -38 -17 -46 -72 -7 -49 -26 -74 -50 -65 -11 4 -12 15 -5 54 5 26 10 55 12
63 3 22 -40 25 -46 3z"/>
<path d="M1467 983 c-6 -11 -16 -54 -22 -99 -4 -21 -8 -47 -11 -56 -4 -14 1
-18 20 -18 14 0 27 5 27 10 1 6 2 13 3 18 1 4 6 26 10 50 7 37 27 62 52 62 7
0 -1 -78 -12 -117 -5 -20 -3 -23 20 -23 20 0 27 6 32 28 18 80 26 100 40 106
33 13 34 1 9 -111 -4 -19 -1 -23 19 -23 29 0 32 9 50 125 8 49 -36 71 -81 40
-19 -13 -22 -13 -27 0 -6 18 -39 19 -69 4 -16 -9 -22 -9 -25 0 -4 12 -29 15
-35 4z"/>
<path d="M500 746 c0 -2 -9 -49 -21 -105 -24 -120 -21 -151 17 -151 24 0 26 3
20 30 -3 17 3 73 14 126 11 53 20 98 20 100 0 2 -11 4 -25 4 -14 0 -25 -2 -25
-4z"/>
<path d="M595 727 c-21 -90 -44 -221 -40 -226 16 -16 37 -6 50 25 17 42 27 43
46 2 13 -29 43 -46 53 -29 3 4 -4 27 -15 51 l-19 43 22 26 c13 14 29 30 37 37
11 9 10 12 -8 17 -17 4 -33 -4 -62 -30 -37 -34 -40 -35 -34 -12 3 13 9 44 13
69 8 43 7 46 -15 48 -16 1 -24 -5 -28 -21z"/>
<path d="M110 670 c-7 -4 -6 -33 1 -91 10 -78 13 -86 33 -85 11 1 26 5 33 9 9
6 93 160 93 171 0 2 -12 1 -26 -2 -21 -4 -32 -17 -52 -63 -14 -33 -28 -59 -31
-59 -4 0 -7 12 -7 28 -3 92 -4 99 -19 99 -8 0 -19 -3 -25 -7z"/>
<path d="M318 663 c-57 -36 -70 -128 -23 -159 36 -24 99 -5 120 36 18 35 19
90 3 113 -19 25 -68 30 -100 10z m60 -64 c3 -40 -30 -81 -49 -62 -17 17 -14
61 7 84 24 27 38 19 42 -22z"/>
<path d="M775 656 c-30 -31 -27 -52 16 -87 31 -25 32 -28 15 -35 -10 -4 -27
-2 -36 4 -14 8 -21 8 -30 -3 -8 -10 -6 -17 12 -29 64 -45 148 25 94 79 -12 12
-28 24 -36 27 -26 8 1 29 30 23 41 -9 48 20 8 34 -42 15 -46 14 -73 -13z"/>
<path d="M915 669 c-10 -15 -1 -160 10 -167 29 -19 45 -10 65 34 11 26 20 53
20 62 0 8 3 12 7 8 4 -4 6 -22 4 -41 -4 -53 6 -72 35 -71 22 2 31 13 60 79 34
77 41 107 27 107 -21 -1 -40 -24 -60 -77 l-22 -58 -2 40 c0 22 0 50 0 61 2 14
-5 23 -20 27 -18 5 -25 -3 -47 -54 -15 -32 -29 -59 -32 -59 -3 0 -5 25 -5 57
0 46 -3 57 -17 59 -10 1 -20 -2 -23 -7z"/>
<path d="M1208 657 c-34 -29 -48 -58 -48 -101 0 -45 24 -70 59 -61 33 8 52 9
70 4 11 -3 19 18 32 81 10 47 18 88 19 92 0 8 -21 5 -38 -6 -8 -5 -18 -4 -25
3 -17 17 -39 13 -69 -12z m67 -66 c-9 -50 -48 -80 -61 -46 -14 37 23 99 52 88
12 -4 14 -14 9 -42z"/>
<path d="M1414 669 c-24 -12 -61 -75 -58 -99 1 -8 2 -23 3 -33 2 -26 45 -43
76 -29 29 13 32 6 9 -26 -16 -23 -53 -29 -71 -11 -8 8 -14 5 -22 -10 -10 -19
-9 -22 14 -31 46 -17 96 -7 118 24 9 13 24 68 32 116 3 19 10 50 15 68 8 32 8
33 -23 31 -18 0 -41 2 -52 5 -11 3 -30 0 -41 -5z m56 -69 c0 -31 -25 -63 -44
-57 -18 6 -19 46 -2 72 20 31 46 22 46 -15z"/>
<path d="M1608 664 c-32 -17 -58 -62 -58 -99 0 -35 42 -75 77 -75 61 0 73 44
13 44 -24 1 -36 6 -38 18 -3 14 6 17 50 20 l53 3 -1 39 c-2 61 -40 81 -96 50z
m55 -38 c8 -19 -1 -26 -36 -26 -29 0 -30 0 -12 20 21 23 41 26 48 6z"/>
<path d="M1769 670 c-10 -6 -21 -37 -29 -87 -15 -89 -16 -86 4 -89 21 -3 32
14 41 61 9 54 22 75 46 75 17 0 19 -5 15 -27 -20 -122 -21 -114 5 -110 21 4
26 13 38 76 16 78 11 102 -26 107 -11 2 -28 -3 -39 -10 -15 -12 -20 -12 -29 0
-7 9 -15 10 -26 4z"/>
</g>
</svg>
